<svg width="193" height="25" viewBox="0 0 193 25" fill="none" xmlns="http://www.w3.org/2000/svg">
<path d="M4.2717 24.0439V10.328H0.576543V8.35517H4.2717V5.38025C4.2717 3.83538 4.68924 2.65586 5.5243 1.84167C6.35936 1.02748 7.55977 0.620385 9.12552 0.620385C9.54305 0.620385 9.91883 0.641262 10.2529 0.683014C10.5869 0.724768 10.9105 0.797837 11.2236 0.90222V2.969C10.8687 2.86462 10.5451 2.79155 10.2529 2.7498C9.96058 2.68717 9.63699 2.65586 9.28209 2.65586C8.36352 2.65586 7.67459 2.8855 7.21531 3.34478C6.7769 3.78319 6.55769 4.48256 6.55769 5.44288V8.35517H11.2236V10.328H6.55769V24.0439H4.2717ZM20.3683 24.3571C19.1783 24.3571 18.1241 24.1066 17.2055 23.6055C16.2869 23.0836 15.5667 22.3738 15.0448 21.4761C14.5437 20.5576 14.2932 19.4928 14.2932 18.282V8.35517H16.5792V17.8123C16.5792 19.211 16.9759 20.3175 17.7692 21.1317C18.5625 21.925 19.6272 22.3216 20.9633 22.3216C21.9027 22.3216 22.7378 22.1129 23.4685 21.6953C24.22 21.2569 24.8255 20.6515 25.2847 19.8791V8.35517H27.6021V24.0439H25.2847V22.2277C24.053 23.6473 22.4142 24.3571 20.3683 24.3571ZM38.3377 24.3571C36.9807 24.3571 35.9369 24.0335 35.2062 23.3863C34.4755 22.7392 34.1102 21.7997 34.1102 20.568V10.328H30.7282V8.35517H34.1102V4.37818L36.3962 3.78319V8.35517H41.1247V10.328H36.3962V19.973C36.3962 20.8081 36.5841 21.4135 36.9598 21.7893C37.3356 22.1442 37.9515 22.3216 38.8074 22.3216C39.2458 22.3216 39.632 22.2903 39.9661 22.2277C40.321 22.1651 40.6967 22.0607 41.0934 21.9145V23.95C40.6967 24.0961 40.2479 24.2005 39.7469 24.2631C39.2667 24.3258 38.797 24.3571 38.3377 24.3571ZM50.2447 24.3571C49.0547 24.3571 48.0005 24.1066 47.0819 23.6055C46.1633 23.0836 45.4431 22.3738 44.9212 21.4761C44.4201 20.5576 44.1696 19.4928 44.1696 18.282V8.35517H46.4556V17.8123C46.4556 19.211 46.8522 20.3175 47.6456 21.1317C48.4389 21.925 49.5036 22.3216 50.8397 22.3216C51.7791 22.3216 52.6142 22.1129 53.3449 21.6953C54.0964 21.2569 54.7019 20.6515 55.1611 19.8791V8.35517H57.4784V24.0439H55.1611V22.2277C53.9294 23.6473 52.2906 24.3571 50.2447 24.3571ZM62.045 24.0439V8.35517H64.3623V10.5785C64.8425 9.76434 65.4479 9.13804 66.1786 8.69963C66.9302 8.24035 67.7861 8.01071 68.7464 8.01071C69.2892 8.01071 69.7798 8.08377 70.2182 8.22991V10.3593C69.9468 10.2549 69.6754 10.1819 69.404 10.1401C69.1326 10.0984 68.8613 10.0775 68.5899 10.0775C67.6295 10.0775 66.784 10.3593 66.0533 10.923C65.3435 11.4658 64.7799 12.2591 64.3623 13.3029V24.0439H62.045ZM79.7551 24.3258C78.252 24.3258 76.8846 23.9709 75.6528 23.2611C74.442 22.5304 73.4712 21.5492 72.7406 20.3175C72.0307 19.0857 71.6758 17.7079 71.6758 16.1839C71.6758 14.6808 72.0203 13.3238 72.7092 12.113C73.3982 10.8812 74.3272 9.91048 75.4963 9.20067C76.6654 8.46999 77.9701 8.10465 79.4106 8.10465C80.8094 8.10465 82.062 8.46999 83.1684 9.20067C84.2958 9.91048 85.183 10.8812 85.8302 12.113C86.4982 13.3238 86.8323 14.6808 86.8323 16.1839V16.9041H73.9618C74.0871 17.9271 74.4107 18.8457 74.9326 19.6599C75.4754 20.474 76.1748 21.1212 77.0307 21.6014C77.8866 22.0607 78.8261 22.2903 79.849 22.2903C80.6632 22.2903 81.4565 22.1651 82.229 21.9145C83.0014 21.664 83.6486 21.3091 84.1705 20.8498L85.611 22.3843C84.7342 23.0314 83.8156 23.522 82.8553 23.8561C81.9158 24.1692 80.8824 24.3258 79.7551 24.3258ZM74.0245 15.0566H84.515C84.3897 14.1171 84.0766 13.2821 83.5755 12.5514C83.0954 11.7998 82.4899 11.2153 81.7592 10.7977C81.0286 10.3593 80.2248 10.1401 79.348 10.1401C78.4503 10.1401 77.6257 10.3489 76.8741 10.7664C76.1226 11.184 75.4963 11.7685 74.9952 12.5201C74.4942 13.2507 74.1706 14.0962 74.0245 15.0566Z" fill="#2DAADF"/>
<path d="M97.9633 24.2631C96.4184 24.2631 95.0196 23.8874 93.7671 23.1358C92.5145 22.3843 91.5124 21.3822 90.7608 20.1296C90.0301 18.8561 89.6648 17.4365 89.6648 15.8708C89.6648 14.305 90.0301 12.8958 90.7608 11.6432C91.5124 10.3698 92.5249 9.36769 93.7984 8.637C95.0718 7.88545 96.5019 7.50967 98.0885 7.50967C98.9027 7.50967 99.6856 7.62449 100.437 7.85413C101.189 8.0629 101.888 8.37605 102.535 8.79358V2.1235L106.825 1.40326V24.0439H102.598V22.6974C101.262 23.7412 99.7169 24.2631 97.9633 24.2631ZM98.6522 20.5993C99.4455 20.5993 100.166 20.474 100.813 20.2235C101.481 19.9521 102.055 19.5555 102.535 19.0336V12.6766C102.055 12.1965 101.481 11.8207 100.813 11.5493C100.145 11.2779 99.4246 11.1422 98.6522 11.1422C97.7545 11.1422 96.9403 11.351 96.2096 11.7685C95.4998 12.1652 94.9361 12.7288 94.5186 13.4595C94.1011 14.1693 93.8923 14.9731 93.8923 15.8708C93.8923 16.7684 94.1011 17.5722 94.5186 18.282C94.9361 18.9918 95.4998 19.5555 96.2096 19.973C96.9403 20.3905 97.7545 20.5993 98.6522 20.5993ZM118.752 24.3571C117.124 24.3571 115.652 23.9813 114.337 23.2298C113.021 22.4782 111.977 21.4657 111.205 20.1922C110.433 18.9187 110.046 17.4887 110.046 15.9021C110.046 14.3154 110.422 12.8854 111.174 11.6119C111.946 10.3176 112.99 9.29462 114.305 8.54306C115.641 7.7915 117.124 7.41572 118.752 7.41572C120.38 7.41572 121.852 7.7915 123.167 8.54306C124.503 9.29462 125.547 10.3176 126.299 11.6119C127.071 12.8854 127.457 14.3154 127.457 15.9021C127.457 17.4887 127.071 18.9187 126.299 20.1922C125.547 21.4657 124.514 22.4782 123.199 23.2298C121.883 23.9813 120.401 24.3571 118.752 24.3571ZM118.752 20.6306C119.608 20.6306 120.37 20.4219 121.038 20.0043C121.727 19.5868 122.27 19.0231 122.666 18.3133C123.084 17.5826 123.293 16.7789 123.293 15.9021C123.293 15.0044 123.084 14.2006 122.666 13.4908C122.27 12.781 121.727 12.2173 121.038 11.7998C120.37 11.3614 119.608 11.1422 118.752 11.1422C117.917 11.1422 117.155 11.3614 116.466 11.7998C115.777 12.2173 115.234 12.781 114.838 13.4908C114.441 14.2006 114.243 15.0044 114.243 15.9021C114.243 16.7789 114.441 17.5826 114.838 18.3133C115.234 19.0231 115.777 19.5868 116.466 20.0043C117.155 20.4219 117.917 20.6306 118.752 20.6306ZM138.518 24.3571C136.911 24.3571 135.46 23.9918 134.165 23.2611C132.871 22.5095 131.848 21.497 131.097 20.2235C130.345 18.9292 129.969 17.4887 129.969 15.9021C129.969 14.2946 130.345 12.8541 131.097 11.5806C131.848 10.3071 132.871 9.29462 134.165 8.54306C135.46 7.7915 136.911 7.41572 138.518 7.41572C139.813 7.41572 141.044 7.66624 142.213 8.16728C143.403 8.66832 144.426 9.38856 145.282 10.328L142.652 13.115C142.046 12.447 141.41 11.9564 140.742 11.6432C140.094 11.3092 139.385 11.1422 138.612 11.1422C137.777 11.1422 137.026 11.351 136.358 11.7685C135.71 12.186 135.188 12.7497 134.792 13.4595C134.416 14.1693 134.228 14.9835 134.228 15.9021C134.228 16.7789 134.416 17.5826 134.792 18.3133C135.188 19.0231 135.731 19.5868 136.42 20.0043C137.109 20.401 137.871 20.5993 138.706 20.5993C139.437 20.5993 140.115 20.4532 140.742 20.1609C141.389 19.8477 142.005 19.3885 142.589 18.783L145.157 21.4761C144.322 22.3738 143.32 23.0836 142.151 23.6055C140.982 24.1066 139.771 24.3571 138.518 24.3571ZM156.054 24.2945C154.238 24.2945 152.86 23.8874 151.921 23.0732C151.002 22.2381 150.543 21.0273 150.543 19.4407V11.2988H147.192V7.72887H150.543V3.56399L154.833 2.59322V7.72887H159.499V11.2988H154.833V18.5638C154.833 19.3154 155 19.8582 155.334 20.1922C155.668 20.5054 156.253 20.6619 157.088 20.6619C157.505 20.6619 157.881 20.6411 158.215 20.5993C158.57 20.5367 158.956 20.4323 159.374 20.2862V23.8247C158.935 23.9709 158.382 24.0857 157.714 24.1692C157.067 24.2527 156.514 24.2945 156.054 24.2945ZM169.989 24.3571C168.36 24.3571 166.888 23.9813 165.573 23.2298C164.258 22.4782 163.214 21.4657 162.442 20.1922C161.669 18.9187 161.283 17.4887 161.283 15.9021C161.283 14.3154 161.659 12.8854 162.41 11.6119C163.183 10.3176 164.227 9.29462 165.542 8.54306C166.878 7.7915 168.36 7.41572 169.989 7.41572C171.617 7.41572 173.089 7.7915 174.404 8.54306C175.74 9.29462 176.784 10.3176 177.535 11.6119C178.308 12.8854 178.694 14.3154 178.694 15.9021C178.694 17.4887 178.308 18.9187 177.535 20.1922C176.784 21.4657 175.75 22.4782 174.435 23.2298C173.12 23.9813 171.638 24.3571 169.989 24.3571ZM169.989 20.6306C170.844 20.6306 171.606 20.4219 172.275 20.0043C172.963 19.5868 173.506 19.0231 173.903 18.3133C174.32 17.5826 174.529 16.7789 174.529 15.9021C174.529 15.0044 174.32 14.2006 173.903 13.4908C173.506 12.781 172.963 12.2173 172.275 11.7998C171.606 11.3614 170.844 11.1422 169.989 11.1422C169.153 11.1422 168.391 11.3614 167.703 11.7998C167.014 12.2173 166.471 12.781 166.074 13.4908C165.678 14.2006 165.479 15.0044 165.479 15.9021C165.479 16.7789 165.678 17.5826 166.074 18.3133C166.471 19.0231 167.014 19.5868 167.703 20.0043C168.391 20.4219 169.153 20.6306 169.989 20.6306ZM181.957 24.0439V7.72887H186.248V9.54514C186.769 8.83533 187.396 8.29254 188.126 7.91676C188.857 7.54098 189.682 7.35309 190.6 7.35309C191.394 7.37397 191.989 7.49923 192.385 7.72887V11.4867C192.072 11.3405 191.728 11.2361 191.352 11.1735C190.976 11.09 190.59 11.0483 190.193 11.0483C189.358 11.0483 188.596 11.257 187.907 11.6746C187.218 12.0921 186.665 12.6871 186.248 13.4595V24.0439H181.957Z" fill="black"/>
</svg>
