<?xml version="1.0" encoding="UTF-8"?> <svg xmlns="http://www.w3.org/2000/svg" xmlns:xlink="http://www.w3.org/1999/xlink" version="1.1" id="Layer_1" x="0px" y="0px" viewBox="0 0 1571.7 612.3" style="enable-background:new 0 0 1571.7 612.3;" xml:space="preserve"> <style type="text/css"> .st0{fill:#5DB446;} .st1{fill:#8DC63F;} .st2{fill:#32302F;} </style> <g> <path class="st0" d="M410.3,506.9c-83.4,82.7-218.1,82.1-300.8-1.4c-82.7-83.4-82.1-218.1,1.4-300.8c45.5-45.1,106.1-65.4,165.3-61 c-67.4-8.8-138,12.6-190,64.1c-89.4,88.6-90.1,232.9-1.5,322.3c88.6,89.4,232.9,90.1,322.3,1.5c52-51.5,74-121.9,65.8-189.4 C476.7,401.4,455.8,461.9,410.3,506.9L410.3,506.9z"></path> <path class="st1" d="M159.7,242.4c59-13.1,103.2,33.8,148.4,36.5c0,0-38.7,51.4-70.7,68.6c-43.6,23.4-93.2,20.1-161.2-4.6 c44.6-29.2,102.2-45,102.2-45s-67,3.1-118.4,41C59.9,338.8,88.6,258.2,159.7,242.4L159.7,242.4z"></path> <path class="st1" d="M107.3,111.2c-6.5-46.5-52.7-66-66.9-98.2c0,0-26.9,42.1-30.8,70.2c-5.2,38.1,10.7,73.4,47.2,116.2 c9.1-40.4,5-86.7,5-86.7s16,49.7,2.3,97.5C64.1,210.2,115.1,167.4,107.3,111.2L107.3,111.2z"></path> <path class="st0" d="M325.4,509.5c86.7-35.9,130.7-131.6,102.8-219.5l-9.2,3.8l-7.8-19c-23.8-2.4-47.2-20.7-58.6-48.5 c-0.8-1.9-1.5-3.8-2.1-5.7l13.3-5.4l-2.8-6.7l10.7-4.4L353,158.3c-1.5-3.7,0.3-7.9,3.9-9.4h0c3.7-1.5,7.9,0.3,9.4,3.9l18.7,45.8 l35-14.3l-18.7-45.8c-1.5-3.7,0.3-7.9,3.9-9.4l0,0c3.7-1.5,7.9,0.3,9.4,3.9l18.7,45.8l10.3-4.2l2.8,6.7l13.6-5.6 c0.9,1.8,1.7,3.6,2.5,5.5c11.5,28.2,7.3,58.2-8.5,76.5l7.6,18.5l-9.4,3.8c33.2,101.1-17,212.1-117,252.9 c-104.5,42.7-223.9-7.4-266.7-111.9C68.4,421.3,168.8,574.3,325.4,509.5L325.4,509.5z"></path> </g> <g> <path class="st2" d="M639.6,248.2V136l-27.4,11.4v-24l37.4-15.2H667v140H639.6z"></path> <path class="st2" d="M746.2,250.4c-12.1,0-22.8-3-32.1-9.1c-9.3-6.1-16.5-14.5-21.6-25.4c-5.1-10.9-7.7-23.4-7.7-37.7 c0-14.4,2.6-27,7.7-37.8c5.1-10.8,12.3-19.2,21.6-25.3c9.3-6.1,20-9.1,32.1-9.1c12.3,0,23,3,32.3,9.1c9.3,6.1,16.5,14.5,21.6,25.3 c5.1,10.8,7.7,23.4,7.7,37.8c0,14.3-2.6,26.8-7.7,37.7c-5.1,10.9-12.3,19.3-21.6,25.4C769.2,247.3,758.5,250.4,746.2,250.4z M746.2,226.6c7.2,0,13.4-1.9,18.6-5.8c5.2-3.9,9.2-9.5,12.1-16.8c2.9-7.3,4.3-15.9,4.3-25.8c0-10-1.4-18.6-4.3-25.9 c-2.9-7.3-6.9-12.8-12.1-16.7c-5.2-3.9-11.4-5.8-18.6-5.8c-7.1,0-13.2,1.9-18.4,5.8c-5.2,3.9-9.2,9.4-12.1,16.7 c-2.9,7.3-4.3,15.9-4.3,25.9c0,9.9,1.4,18.5,4.3,25.8c2.9,7.3,6.9,12.9,12.1,16.8C733,224.6,739.1,226.6,746.2,226.6z"></path> <path class="st2" d="M883.2,250.4c-12.1,0-22.8-3-32.1-9.1c-9.3-6.1-16.5-14.5-21.6-25.4c-5.1-10.9-7.7-23.4-7.7-37.7 c0-14.4,2.6-27,7.7-37.8c5.1-10.8,12.3-19.2,21.6-25.3c9.3-6.1,20-9.1,32.1-9.1c12.3,0,23,3,32.3,9.1c9.3,6.1,16.5,14.5,21.6,25.3 c5.1,10.8,7.7,23.4,7.7,37.8c0,14.3-2.6,26.8-7.7,37.7c-5.1,10.9-12.3,19.3-21.6,25.4C906.2,247.3,895.5,250.4,883.2,250.4z M883.2,226.6c7.2,0,13.4-1.9,18.6-5.8c5.2-3.9,9.2-9.5,12.1-16.8c2.9-7.3,4.3-15.9,4.3-25.8c0-10-1.4-18.6-4.3-25.9 c-2.9-7.3-6.9-12.8-12.1-16.7c-5.2-3.9-11.4-5.8-18.6-5.8c-7.1,0-13.2,1.9-18.4,5.8c-5.2,3.9-9.2,9.4-12.1,16.7 c-2.9,7.3-4.3,15.9-4.3,25.9c0,9.9,1.4,18.5,4.3,25.8c2.9,7.3,6.9,12.9,12.1,16.8C870,224.6,876.1,226.6,883.2,226.6z"></path> <path class="st2" d="M988.2,179.2c-9.7,0-17.5-3.3-23.3-9.9c-5.8-6.6-8.7-15.4-8.7-26.3c0-10.7,2.9-19.3,8.8-26 c5.9-6.7,13.6-10,23.2-10c9.5,0,17.1,3.3,23,10c5.9,6.7,8.8,15.3,8.8,26c0,10.9-2.9,19.7-8.7,26.3 C1005.5,175.9,997.8,179.2,988.2,179.2L988.2,179.2z M988.2,164.6c4.8,0,8.6-1.9,11.3-5.7c2.7-3.8,4.1-9.1,4.1-15.9 c0-6.5-1.4-11.7-4.2-15.6c-2.8-3.9-6.5-5.8-11.2-5.8c-4.8,0-8.6,1.9-11.3,5.8c-2.7,3.9-4.2,9.1-4.3,15.6c0.1,6.8,1.5,12.1,4.2,15.9 C979.5,162.7,983.3,164.6,988.2,164.6z M980.4,248.2l79.2-140h20.4l-79.2,140H980.4z M1074.2,249.2c-9.7,0-17.5-3.3-23.3-9.9 s-8.7-15.4-8.7-26.3c0-10.7,2.9-19.3,8.8-26c5.9-6.7,13.6-10,23.2-10c9.5,0,17.1,3.3,23,10c5.9,6.7,8.8,15.3,8.8,26 c0,10.9-2.9,19.7-8.7,26.3C1091.5,245.9,1083.8,249.2,1074.2,249.2L1074.2,249.2z M1074.2,234.6c4.8,0,8.6-1.9,11.3-5.7 c2.7-3.8,4.1-9.1,4.1-15.9c0-6.5-1.4-11.7-4.2-15.6c-2.8-3.9-6.5-5.8-11.2-5.8c-4.8,0-8.6,1.9-11.3,5.8c-2.7,3.9-4.2,9.1-4.3,15.6 c0.1,6.8,1.5,12.1,4.2,15.9C1065.5,232.7,1069.3,234.6,1074.2,234.6z"></path> <path class="st2" d="M689.2,490.4c-10.4,0-20.1-1.8-29-5.5c-8.9-3.7-16.8-8.8-23.5-15.4c-6.7-6.6-12-14.3-15.8-23 c-3.8-8.7-5.7-18.2-5.7-28.3s1.9-19.6,5.7-28.3c3.8-8.7,9.1-16.4,15.8-23c6.7-6.6,14.6-11.7,23.5-15.4c8.9-3.7,18.6-5.5,29-5.5 s20.1,1.8,29.1,5.5c9,3.7,16.9,8.8,23.6,15.4c6.7,6.6,12,14.3,15.7,23c3.7,8.7,5.6,18.2,5.6,28.3s-1.9,19.6-5.6,28.3 c-3.7,8.7-9,16.4-15.7,23c-6.7,6.6-14.6,11.7-23.6,15.4C709.3,488.5,699.6,490.4,689.2,490.4z M689.2,463.8 c6.4,0,12.3-1.2,17.6-3.5c5.3-2.3,10-5.5,14-9.6c4-4.1,7.1-8.9,9.4-14.5c2.3-5.6,3.4-11.6,3.4-18c0-6.5-1.1-12.6-3.4-18.1 c-2.3-5.5-5.4-10.3-9.4-14.4c-4-4.1-8.7-7.3-14-9.6c-5.3-2.3-11.2-3.5-17.6-3.5c-6.3,0-12.1,1.2-17.4,3.5c-5.3,2.3-10,5.5-14,9.6 c-4,4.1-7.1,8.9-9.4,14.4c-2.3,5.5-3.4,11.5-3.4,17.9c0,6.5,1.1,12.6,3.4,18.2c2.3,5.6,5.4,10.4,9.4,14.5c4,4.1,8.7,7.3,14,9.6 C677.1,462.6,682.9,463.8,689.2,463.8z M666.8,331.4c-4,0-7.4-1.3-10.2-4c-2.8-2.7-4.2-6.1-4.2-10.4c0-4.1,1.4-7.6,4.2-10.3 c2.8-2.7,6.2-4.1,10.2-4.1c4.1,0,7.6,1.4,10.3,4.1c2.7,2.7,4.1,6.2,4.1,10.3c0,4.3-1.4,7.7-4.1,10.4 C674.4,330,670.9,331.4,666.8,331.4z M711.6,331.4c-4,0-7.4-1.3-10.2-4c-2.8-2.7-4.2-6.1-4.2-10.4c0-4.1,1.4-7.6,4.2-10.3 c2.8-2.7,6.2-4.1,10.2-4.1c4.1,0,7.6,1.4,10.3,4.1c2.7,2.7,4.1,6.2,4.1,10.3c0,4.3-1.4,7.7-4.1,10.4 C719.2,330,715.7,331.4,711.6,331.4z"></path> <path class="st2" d="M781.4,488.2v-140l27.4-4.6v84.2l45-43.8h31l-49.2,47.8l52.2,56.4h-35l-44-47.6v47.6H781.4z"></path> <path class="st2" d="M936.8,490.2c-10.4,0-19.8-2.4-28.2-7.2s-15.1-11.3-20-19.4c-4.9-8.1-7.4-17.3-7.4-27.4s2.4-19.3,7.3-27.5 c4.9-8.2,11.5-14.7,20-19.5c8.5-4.8,17.9-7.2,28.3-7.2s19.8,2.4,28.3,7.2c8.5,4.8,15.1,11.3,20,19.5c4.9,8.2,7.3,17.4,7.3,27.5 s-2.4,19.3-7.3,27.4c-4.9,8.1-11.5,14.6-19.9,19.4S947.3,490.2,936.8,490.2z M936.8,466.4c5.5,0,10.4-1.3,14.7-4 c4.3-2.7,7.8-6.3,10.4-10.9c2.6-4.6,3.9-9.7,3.9-15.3c0-5.7-1.3-10.9-3.9-15.4c-2.6-4.5-6.1-8.2-10.4-10.9 c-4.3-2.7-9.2-4.1-14.7-4.1c-5.3,0-10.2,1.4-14.6,4.1c-4.4,2.7-7.9,6.4-10.4,10.9c-2.5,4.5-3.8,9.7-3.8,15.4 c0,5.6,1.3,10.7,3.8,15.3c2.5,4.6,6,8.2,10.4,10.9C926.6,465,931.5,466.4,936.8,466.4z"></path> <path class="st2" d="M1048.2,490.2c-9.6,0-18.5-1.2-26.6-3.7c-8.1-2.5-15.2-6-21.2-10.7l13.6-18.2c6,4,11.8,7,17.3,9 c5.5,2,11,3,16.5,3c6.1,0,11-1,14.7-3.1c3.7-2.1,5.5-4.8,5.5-8.1c0-2.7-1-4.8-3.1-6.4c-2.1-1.6-5.4-2.7-9.9-3.4l-20-3 c-10.4-1.6-18.3-5-23.6-10.1c-5.3-5.1-8-11.9-8-20.3c0-6.8,1.8-12.6,5.3-17.5c3.5-4.9,8.5-8.7,15-11.4c6.5-2.7,14.2-4.1,23.1-4.1 c7.6,0,15,1.1,22.3,3.2c7.3,2.1,14.1,5.4,20.5,9.8l-13.2,17.8c-5.7-3.6-11.2-6.2-16.4-7.8s-10.5-2.4-15.8-2.4 c-4.9,0-8.9,0.9-11.9,2.8c-3,1.9-4.5,4.3-4.5,7.4c0,2.8,1.1,5,3.2,6.6c2.1,1.6,5.8,2.7,11,3.4l19.8,3c10.4,1.5,18.3,4.8,23.8,9.9 c5.5,5.1,8.2,11.8,8.2,19.9c0,6.7-2,12.6-6,17.7c-4,5.1-9.4,9.2-16.2,12.2C1064.8,488.7,1057,490.2,1048.2,490.2L1048.2,490.2z"></path> <path class="st2" d="M1154.8,489.8c-11.6,0-20.4-2.6-26.3-7.9c-5.9-5.3-8.9-13-8.9-23.1v-52h-21.4V384h21.4v-26.6l27.4-6.2V384 h29.8v22.8H1147v46.4c0,4.8,1.1,8.2,3.2,10.3c2.1,2.1,5.9,3.1,11.2,3.1c2.7,0,5.1-0.2,7.3-0.5c2.2-0.3,4.6-1,7.3-1.9v22.6 c-2.8,0.9-6.3,1.7-10.5,2.2C1161.3,489.5,1157.7,489.8,1154.8,489.8z"></path> <path class="st2" d="M1190.2,488.2V384h27.4v11.6c3.3-4.5,7.3-8,12-10.4c4.7-2.4,9.9-3.6,15.8-3.6c5.1,0.1,8.9,0.9,11.4,2.4v24 c-2-0.9-4.2-1.6-6.6-2.1c-2.4-0.5-4.9-0.7-7.4-0.7c-5.3,0-10.2,1.3-14.6,4c-4.4,2.7-7.9,6.5-10.6,11.4v67.6H1190.2z"></path> <path class="st2" d="M1318.4,490.2c-10.4,0-19.8-2.4-28.2-7.2c-8.4-4.8-15.1-11.3-20-19.4c-4.9-8.1-7.4-17.3-7.4-27.4 s2.4-19.3,7.3-27.5c4.9-8.2,11.5-14.7,20-19.5c8.5-4.8,17.9-7.2,28.3-7.2s19.8,2.4,28.3,7.2c8.5,4.8,15.1,11.3,20,19.5 c4.9,8.2,7.3,17.4,7.3,27.5s-2.4,19.3-7.3,27.4c-4.9,8.1-11.5,14.6-19.9,19.4S1328.9,490.2,1318.4,490.2z M1318.4,466.4 c5.5,0,10.4-1.3,14.7-4c4.3-2.7,7.8-6.3,10.4-10.9c2.6-4.6,3.9-9.7,3.9-15.3c0-5.7-1.3-10.9-3.9-15.4c-2.6-4.5-6.1-8.2-10.4-10.9 c-4.3-2.7-9.2-4.1-14.7-4.1c-5.3,0-10.2,1.4-14.6,4.1c-4.4,2.7-7.9,6.4-10.4,10.9c-2.5,4.5-3.8,9.7-3.8,15.4 c0,5.6,1.3,10.7,3.8,15.3c2.5,4.6,6,8.2,10.4,10.9C1308.2,465,1313.1,466.4,1318.4,466.4z"></path> <path class="st2" d="M1390.8,488.2V384h27.4v8c7.5-6.7,16.5-10,27.2-10c6.8,0,12.9,1.4,18.2,4.1c5.3,2.7,9.7,6.6,13.2,11.5 c4.3-5.1,9.3-8.9,15.1-11.6c5.8-2.7,12.2-4,19.3-4c7.9,0,14.8,1.8,20.7,5.3c5.9,3.5,10.6,8.4,14,14.6c3.4,6.2,5.1,13.4,5.1,21.7 v64.6h-27.2v-60.6c0-6.8-1.8-12.2-5.4-16.1c-3.6-3.9-8.4-5.9-14.4-5.9c-4.1,0-7.9,0.9-11.3,2.6c-3.4,1.7-6.3,4.3-8.7,7.8 c0.1,1.2,0.3,2.4,0.4,3.6c0.1,1.2,0.2,2.5,0.2,4v64.6h-27.4v-60.6c0-6.8-1.8-12.2-5.3-16.1c-3.5-3.9-8.3-5.9-14.3-5.9 c-4.1,0-7.8,0.8-11.1,2.4c-3.3,1.6-6,4-8.3,7.2v73L1390.8,488.2L1390.8,488.2z"></path> </g> </svg> 